<?xml version="1.0" encoding="iso-8859-1"?>
<!-- Generator: Adobe Illustrator 19.0.0, SVG Export Plug-In . SVG Version: 6.00 Build 0)  -->
<svg version="1.1" id="Layer_1" xmlns="http://www.w3.org/2000/svg" xmlns:xlink="http://www.w3.org/1999/xlink" x="0px" y="0px"
	 viewBox="0 0 508 508" style="enable-background:new 0 0 508 508;" xml:space="preserve">
<g>
	<g>
		<path d="M108.6,143.45c-30.2,0-54.7,24.5-54.7,54.7c0,30.1,24.5,54.7,54.7,54.7c30.2,0,54.7-24.5,54.7-54.7
			C163.3,167.95,138.8,143.45,108.6,143.45z M108.6,224.65c-14.6,0-26.5-11.9-26.5-26.5c-0.1-14.6,11.8-26.5,26.5-26.5
			c14.6,0,26.5,11.9,26.5,26.5C135.1,212.75,123.2,224.65,108.6,224.65z"/>
	</g>
</g>
<g>
	<g>
		<path d="M254,113.55c-31.3,0-56.8,25.5-56.8,56.8s25.5,56.8,56.8,56.8s56.8-25.5,56.8-56.8S285.3,113.55,254,113.55z M254,197.85
			c-15.2,0-27.5-12.4-27.5-27.5c0-15.1,12.3-27.5,27.5-27.5s27.5,12.4,27.5,27.5C281.5,185.55,269.1,197.85,254,197.85z"/>
	</g>
</g>
<g>
	<g>
		<path d="M399.5,143.45c-30.2,0-54.7,24.5-54.7,54.7c0,30.1,24.5,54.7,54.7,54.7s54.7-24.5,54.7-54.7
			C454.2,167.95,429.7,143.45,399.5,143.45z M399.5,224.65c-14.6,0-26.5-11.9-26.5-26.5c0-14.6,11.9-26.5,26.5-26.5
			c14.6,0,26.5,11.9,26.5,26.5C426,212.75,414.1,224.65,399.5,224.65z"/>
	</g>
</g>
<g>
	<g>
		<path d="M399.5,271.85c-17.7,0-35.2,4.4-50.8,12.7c-12.1-15.3-29.3-26.4-49.4-30.4c-29.7-5.9-60.7-5.9-90.4,0
			c-20,4-37.3,15.1-49.4,30.4c-15.6-8.3-33.1-12.7-50.8-12.7c-60,0-108.7,48.7-108.7,108.5c0,7.8,6.3,14.1,14.1,14.1h479.8
			c7.8,0,14.1-6.3,14.1-14.1C508,320.55,459.3,271.85,399.5,271.85z M140.8,338.15v28.2H29.5c6.7-37.6,39.6-66.2,79.1-66.2
			c13,0,25.7,3.3,37.1,9.2C142.5,318.35,140.8,328.05,140.8,338.15z M339,366.25H169v-28.2c0-27.4,19.1-51,45.3-56.3
			c26.1-5.2,53.4-5.2,79.5,0c26.2,5.3,45.2,29,45.2,56.4V366.25z M367.3,366.25v-28.2c0-10-1.7-19.7-4.9-28.8
			c11.4-6,24.2-9.2,37.2-9.2c39.5,0,72.4,28.6,79.1,66.2H367.3z"/>
	</g>
</g>
<g>
</g>
<g>
</g>
<g>
</g>
<g>
</g>
<g>
</g>
<g>
</g>
<g>
</g>
<g>
</g>
<g>
</g>
<g>
</g>
<g>
</g>
<g>
</g>
<g>
</g>
<g>
</g>
<g>
</g>
</svg>
