<?xml version="1.0" encoding="iso-8859-1"?>
<!-- Generator: Adobe Illustrator 19.1.0, SVG Export Plug-In . SVG Version: 6.00 Build 0)  -->
<svg version="1.1" id="Capa_1" xmlns="http://www.w3.org/2000/svg" xmlns:xlink="http://www.w3.org/1999/xlink" x="0px" y="0px"
	 viewBox="0 0 317.182 317.182" style="enable-background:new 0 0 317.182 317.182;" xml:space="preserve">
<g>
	<path d="M185.757,0C114.507,0,56.542,57.966,56.542,129.215c0,34.055,13.249,65.069,34.855,88.175L2.212,306.575l10.606,10.607
		l89.44-89.44c22.537,19.129,51.691,30.688,83.498,30.688c71.249,0,129.214-57.966,129.214-129.215S257.006,0,185.757,0z
		 M185.757,243.43c-62.979,0-114.215-51.236-114.215-114.215S122.778,15,185.757,15c62.978,0,114.214,51.236,114.214,114.215
		S248.734,243.43,185.757,243.43z"/>
	<g>
	</g>
	<g>
	</g>
	<g>
	</g>
	<g>
	</g>
	<g>
	</g>
	<g>
	</g>
	<g>
	</g>
	<g>
	</g>
	<g>
	</g>
	<g>
	</g>
	<g>
	</g>
	<g>
	</g>
	<g>
	</g>
	<g>
	</g>
	<g>
	</g>
</g>
<g>
</g>
<g>
</g>
<g>
</g>
<g>
</g>
<g>
</g>
<g>
</g>
<g>
</g>
<g>
</g>
<g>
</g>
<g>
</g>
<g>
</g>
<g>
</g>
<g>
</g>
<g>
</g>
<g>
</g>
</svg>
