<?xml version="1.0" encoding="iso-8859-1"?>
<!-- Generator: Adobe Illustrator 18.1.1, SVG Export Plug-In . SVG Version: 6.00 Build 0)  -->
<svg version="1.1" id="Capa_1" xmlns="http://www.w3.org/2000/svg" xmlns:xlink="http://www.w3.org/1999/xlink" x="0px" y="0px"
	 viewBox="0 0 612.006 612.006" style="enable-background:new 0 0 612.006 612.006;" xml:space="preserve">
<g>
	<g>
		<g>
			<path d="M225.71,372.743h308.2c17.543,0,26.963-18.847,31.886-35.805l46.21-216.475H147.627l46.198,216.475
				C197.498,354.099,208.174,372.743,225.71,372.743z M485.233,317.476l31.886-150.113c1.827-8.608,10.27-14.115,18.903-12.282
				c8.608,1.827,14.109,10.294,12.282,18.903l-31.886,150.113c-1.594,7.495-8.208,12.632-15.58,12.632
				c-1.095,0-2.209-0.117-3.323-0.351C488.9,334.551,483.411,326.09,485.233,317.476z M405.217,319.66l10.633-150.113
				c0.615-8.781,8.214-15.389,17.026-14.774c8.781,0.621,15.395,8.245,14.774,17.032l-10.633,150.113
				c-0.591,8.399-7.587,14.817-15.881,14.817c-0.381,0-0.757-0.012-1.144-0.037C411.21,336.064,404.595,328.441,405.217,319.66z
				 M324.346,154.768c8.713-0.634,16.41,5.993,17.026,14.774l10.627,150.113c0.628,8.781-5.999,16.404-14.774,17.032
				c-0.388,0.025-0.763,0.037-1.144,0.037c-8.294,0-15.291-6.418-15.881-14.817l-10.626-150.106
				C308.944,163.019,315.565,155.389,324.346,154.768z M221.2,155.081c8.621-1.827,17.069,3.673,18.903,12.282l31.886,150.113
				c1.828,8.608-3.667,17.075-12.288,18.903c-1.114,0.24-2.227,0.351-3.323,0.351c-7.365,0-13.986-5.138-15.58-12.632
				l-31.886-150.113C207.085,165.369,212.586,156.909,221.2,155.081z"/>
			<path d="M245.88,459.608c-30.071,0-54.449,24.379-54.449,54.449c0,30.07,24.379,54.449,54.449,54.449
				s54.449-24.379,54.449-54.449C300.33,483.986,275.951,459.608,245.88,459.608z M245.88,534.473
				c-11.279,0-20.416-9.137-20.416-20.416c0-11.273,9.137-20.416,20.416-20.416s20.416,9.144,20.416,20.416
				C266.303,525.336,257.159,534.473,245.88,534.473z"/>
			<path d="M504.517,459.608c-30.077,0-54.456,24.379-54.456,54.449c0,30.07,24.379,54.449,54.456,54.449
				c30.071,0,54.449-24.379,54.449-54.449C558.966,483.986,534.587,459.608,504.517,459.608z M504.517,534.473
				c-11.279,0-20.416-9.137-20.416-20.416c0-11.273,9.137-20.416,20.416-20.416c11.273,0,20.416,9.144,20.416,20.416
				C524.939,525.336,515.789,534.473,504.517,534.473z"/>
		</g>
		<path d="M586.987,437.401H174.873c-14.829,0-27.523-10.091-30.864-24.533L66.91,80.419h-48.45C8.264,80.419,0,72.155,0,61.959
			S8.264,43.5,18.459,43.5h52.616c14.817,0,27.511,10.085,30.864,24.514l77.105,332.468h407.949c10.196,0,18.459,8.264,18.459,18.46
			C605.447,429.143,597.189,437.401,586.987,437.401z"/>
	</g>
</g>
<g>
</g>
<g>
</g>
<g>
</g>
<g>
</g>
<g>
</g>
<g>
</g>
<g>
</g>
<g>
</g>
<g>
</g>
<g>
</g>
<g>
</g>
<g>
</g>
<g>
</g>
<g>
</g>
<g>
</g>
</svg>
